<svg xmlns="http://www.w3.org/2000/svg" xmlns:xlink="http://www.w3.org/1999/xlink" width="981" height="383" viewBox="0 0 981 383"><defs><linearGradient id="a" x1="0.5" x2="0.5" y2="1" gradientUnits="objectBoundingBox"><stop offset="0" stop-color="#fff"/><stop offset="1" stop-color="#f5f5f5"/></linearGradient></defs><rect width="980" height="383" rx="6" fill="#fff"/><g transform="translate(269.693 88)"><path d="M0,0H704.011" transform="translate(-53.204 152.5)" fill="none" stroke="#e3e3e3" stroke-width="2"/><path d="M0,0V167.5" transform="translate(-52.693 0.5)" fill="none" stroke="#e3e3e3" stroke-width="2"/><path d="M17.714,11.542a7.436,7.436,0,0,1-.976,4.245,3.47,3.47,0,0,1-3.05,1.389,3.5,3.5,0,0,1-3.032-1.358,7.058,7.058,0,0,1-1.02-4.056V9.591A7.271,7.271,0,0,1,10.613,5.4a3.5,3.5,0,0,1,3.059-1.371A3.528,3.528,0,0,1,16.712,5.35a7.017,7.017,0,0,1,1,4.083ZM16.088,9.318a5.958,5.958,0,0,0-.58-3.01,2,2,0,0,0-1.837-.945,1.97,1.97,0,0,0-1.819.94A5.817,5.817,0,0,0,11.263,9.2v2.6a6.053,6.053,0,0,0,.6,3.063,1.993,1.993,0,0,0,1.824.989,1.966,1.966,0,0,0,1.789-.932,5.834,5.834,0,0,0,.611-2.936Zm8.024-2.654a2.6,2.6,0,0,1,.734-1.9,2.757,2.757,0,0,1,3.779,0,2.687,2.687,0,0,1,.725,1.947v.624a2.563,2.563,0,0,1-.734,1.894,2.53,2.53,0,0,1-1.868.734,2.586,2.586,0,0,1-1.89-.734,2.617,2.617,0,0,1-.747-1.956Zm1.213.673a1.663,1.663,0,0,0,.387,1.132,1.3,1.3,0,0,0,1.037.445,1.28,1.28,0,0,0,1.006-.432,1.717,1.717,0,0,0,.382-1.18V6.659a1.7,1.7,0,0,0-.378-1.136,1.4,1.4,0,0,0-2.057,0,1.759,1.759,0,0,0-.378,1.172Zm5.019,6.525a2.582,2.582,0,0,1,.734-1.894,2.776,2.776,0,0,1,3.775,0,2.649,2.649,0,0,1,.738,1.96v.624a2.582,2.582,0,0,1-.734,1.894,2.525,2.525,0,0,1-1.876.743,2.586,2.586,0,0,1-1.89-.734,2.617,2.617,0,0,1-.747-1.956Zm1.213.682a1.676,1.676,0,0,0,.387,1.141,1.3,1.3,0,0,0,1.037.445,1.27,1.27,0,0,0,1.011-.436,1.748,1.748,0,0,0,.378-1.185v-.652a1.671,1.671,0,0,0-.382-1.136,1.405,1.405,0,0,0-2.039,0,1.7,1.7,0,0,0-.391,1.176Zm-4.438,1.489-.923-.58,6.249-10,.923.58Z" transform="translate(-71.693 176)" fill="#888"/><path d="M0,0V168" transform="translate(122.307)" fill="none" stroke="#e3e3e3" stroke-width="2"/><path d="M13.021,17H4.636V15.831l4.43-4.922a10.524,10.524,0,0,0,1.358-1.815A3.029,3.029,0,0,0,10.8,7.648,2.3,2.3,0,0,0,10.191,6a2.12,2.12,0,0,0-1.617-.642,2.511,2.511,0,0,0-1.885.69,2.635,2.635,0,0,0-.672,1.92H4.39A3.774,3.774,0,0,1,5.528,5.117a4.219,4.219,0,0,1,3.045-1.09,4.054,4.054,0,0,1,2.821.936,3.193,3.193,0,0,1,1.037,2.492q0,1.89-2.408,4.5L6.6,15.673h6.425Zm2.47-6.416.65-6.381H22.7v1.5H17.521L17.134,9.2a4.13,4.13,0,0,1,2.136-.554A3.531,3.531,0,0,1,22.047,9.8a4.53,4.53,0,0,1,1.028,3.125,4.372,4.372,0,0,1-1.068,3.116,3.892,3.892,0,0,1-2.984,1.138,4.045,4.045,0,0,1-2.769-.94,3.754,3.754,0,0,1-1.222-2.6h1.538a2.582,2.582,0,0,0,.782,1.657,2.432,2.432,0,0,0,1.67.558,2.194,2.194,0,0,0,1.78-.773,3.233,3.233,0,0,0,.646-2.136,2.968,2.968,0,0,0-.7-2.061,2.377,2.377,0,0,0-1.859-.778,2.681,2.681,0,0,0-1.67.466l-.431.352Zm13.676-3.92a2.6,2.6,0,0,1,.734-1.9,2.757,2.757,0,0,1,3.779,0A2.687,2.687,0,0,1,34.4,6.717v.624a2.563,2.563,0,0,1-.734,1.894,2.53,2.53,0,0,1-1.868.734,2.586,2.586,0,0,1-1.89-.734,2.617,2.617,0,0,1-.747-1.956Zm1.213.673a1.663,1.663,0,0,0,.387,1.132,1.3,1.3,0,0,0,1.037.445,1.28,1.28,0,0,0,1.006-.432,1.717,1.717,0,0,0,.382-1.18V6.659a1.7,1.7,0,0,0-.378-1.136,1.4,1.4,0,0,0-2.057,0,1.759,1.759,0,0,0-.378,1.172ZM35.4,13.862a2.582,2.582,0,0,1,.734-1.894,2.776,2.776,0,0,1,3.775,0,2.649,2.649,0,0,1,.738,1.96v.624a2.582,2.582,0,0,1-.734,1.894,2.525,2.525,0,0,1-1.876.743,2.586,2.586,0,0,1-1.89-.734A2.617,2.617,0,0,1,35.4,14.5Zm1.213.682A1.676,1.676,0,0,0,37,15.685a1.3,1.3,0,0,0,1.037.445,1.27,1.27,0,0,0,1.011-.436,1.748,1.748,0,0,0,.378-1.185v-.652a1.671,1.671,0,0,0-.382-1.136,1.405,1.405,0,0,0-2.039,0,1.7,1.7,0,0,0-.391,1.176Zm-4.438,1.489-.923-.58,6.249-10,.923.58Z" transform="translate(102.307 176)" fill="#888"/><path d="M0,0V168" transform="translate(298.307)" fill="none" stroke="#e3e3e3" stroke-width="2"/><path d="M5.383,10.584,6.034,4.2H12.59v1.5H7.414L7.027,9.2a4.13,4.13,0,0,1,2.136-.554A3.531,3.531,0,0,1,11.94,9.8a4.53,4.53,0,0,1,1.028,3.125A4.372,4.372,0,0,1,11.9,16.038a3.892,3.892,0,0,1-2.984,1.138,4.045,4.045,0,0,1-2.769-.94,3.754,3.754,0,0,1-1.222-2.6H6.464a2.582,2.582,0,0,0,.782,1.657,2.432,2.432,0,0,0,1.67.558,2.194,2.194,0,0,0,1.78-.773,3.233,3.233,0,0,0,.646-2.136,2.968,2.968,0,0,0-.7-2.061A2.377,2.377,0,0,0,8.785,10.1a2.681,2.681,0,0,0-1.67.466l-.431.352Zm17.385.958a7.436,7.436,0,0,1-.976,4.245,3.47,3.47,0,0,1-3.05,1.389,3.5,3.5,0,0,1-3.032-1.358,7.058,7.058,0,0,1-1.02-4.056V9.591A7.271,7.271,0,0,1,15.667,5.4a3.5,3.5,0,0,1,3.059-1.371A3.528,3.528,0,0,1,21.766,5.35a7.017,7.017,0,0,1,1,4.083ZM21.142,9.318a5.958,5.958,0,0,0-.58-3.01,2,2,0,0,0-1.837-.945,1.97,1.97,0,0,0-1.819.94A5.817,5.817,0,0,0,16.317,9.2v2.6a6.053,6.053,0,0,0,.6,3.063,1.993,1.993,0,0,0,1.824.989,1.966,1.966,0,0,0,1.789-.932,5.834,5.834,0,0,0,.611-2.936Zm8.024-2.654a2.6,2.6,0,0,1,.734-1.9,2.757,2.757,0,0,1,3.779,0A2.687,2.687,0,0,1,34.4,6.717v.624a2.563,2.563,0,0,1-.734,1.894,2.53,2.53,0,0,1-1.868.734,2.586,2.586,0,0,1-1.89-.734,2.617,2.617,0,0,1-.747-1.956Zm1.213.673a1.663,1.663,0,0,0,.387,1.132,1.3,1.3,0,0,0,1.037.445,1.28,1.28,0,0,0,1.006-.432,1.717,1.717,0,0,0,.382-1.18V6.659a1.7,1.7,0,0,0-.378-1.136,1.4,1.4,0,0,0-2.057,0,1.759,1.759,0,0,0-.378,1.172ZM35.4,13.862a2.582,2.582,0,0,1,.734-1.894,2.776,2.776,0,0,1,3.775,0,2.649,2.649,0,0,1,.738,1.96v.624a2.582,2.582,0,0,1-.734,1.894,2.525,2.525,0,0,1-1.876.743,2.586,2.586,0,0,1-1.89-.734A2.617,2.617,0,0,1,35.4,14.5Zm1.213.682A1.676,1.676,0,0,0,37,15.685a1.3,1.3,0,0,0,1.037.445,1.27,1.27,0,0,0,1.011-.436,1.748,1.748,0,0,0,.378-1.185v-.652a1.671,1.671,0,0,0-.382-1.136,1.405,1.405,0,0,0-2.039,0,1.7,1.7,0,0,0-.391,1.176Zm-4.438,1.489-.923-.58,6.249-10,.923.58Z" transform="translate(276.307 176)" fill="#888"/><path d="M0,0V168" transform="translate(474.307)" fill="none" stroke="#e3e3e3" stroke-width="2"/><path d="M0,0V168" transform="translate(650.307)" fill="none" stroke="#e3e3e3" stroke-width="2"/><path d="M12.9,5.117,7.6,17H5.893L11.175,5.539H4.25V4.2H12.9Zm2.593,5.467.65-6.381H22.7v1.5H17.521L17.134,9.2a4.13,4.13,0,0,1,2.136-.554A3.531,3.531,0,0,1,22.047,9.8a4.53,4.53,0,0,1,1.028,3.125,4.372,4.372,0,0,1-1.068,3.116,3.892,3.892,0,0,1-2.984,1.138,4.045,4.045,0,0,1-2.769-.94,3.754,3.754,0,0,1-1.222-2.6h1.538a2.582,2.582,0,0,0,.782,1.657,2.432,2.432,0,0,0,1.67.558,2.194,2.194,0,0,0,1.78-.773,3.233,3.233,0,0,0,.646-2.136,2.968,2.968,0,0,0-.7-2.061,2.377,2.377,0,0,0-1.859-.778,2.681,2.681,0,0,0-1.67.466l-.431.352Zm13.676-3.92a2.6,2.6,0,0,1,.734-1.9,2.757,2.757,0,0,1,3.779,0A2.687,2.687,0,0,1,34.4,6.717v.624a2.563,2.563,0,0,1-.734,1.894,2.53,2.53,0,0,1-1.868.734,2.586,2.586,0,0,1-1.89-.734,2.617,2.617,0,0,1-.747-1.956Zm1.213.673a1.663,1.663,0,0,0,.387,1.132,1.3,1.3,0,0,0,1.037.445,1.28,1.28,0,0,0,1.006-.432,1.717,1.717,0,0,0,.382-1.18V6.659a1.7,1.7,0,0,0-.378-1.136,1.4,1.4,0,0,0-2.057,0,1.759,1.759,0,0,0-.378,1.172ZM35.4,13.862a2.582,2.582,0,0,1,.734-1.894,2.776,2.776,0,0,1,3.775,0,2.649,2.649,0,0,1,.738,1.96v.624a2.582,2.582,0,0,1-.734,1.894,2.525,2.525,0,0,1-1.876.743,2.586,2.586,0,0,1-1.89-.734A2.617,2.617,0,0,1,35.4,14.5Zm1.213.682A1.676,1.676,0,0,0,37,15.685a1.3,1.3,0,0,0,1.037.445,1.27,1.27,0,0,0,1.011-.436,1.748,1.748,0,0,0,.378-1.185v-.652a1.671,1.671,0,0,0-.382-1.136,1.405,1.405,0,0,0-2.039,0,1.7,1.7,0,0,0-.391,1.176Zm-4.438,1.489-.923-.58,6.249-10,.923.58Z" transform="translate(453.307 176)" fill="#888"/><path d="M14.926,17H13.292V6.163l-3.278,1.2V5.891l4.658-1.749h.255Zm12.788-5.458a7.436,7.436,0,0,1-.976,4.245,3.47,3.47,0,0,1-3.05,1.389,3.5,3.5,0,0,1-3.032-1.358,7.058,7.058,0,0,1-1.02-4.056V9.591A7.271,7.271,0,0,1,20.613,5.4a3.5,3.5,0,0,1,3.059-1.371A3.528,3.528,0,0,1,26.712,5.35a7.017,7.017,0,0,1,1,4.083ZM26.088,9.318a5.958,5.958,0,0,0-.58-3.01,2,2,0,0,0-1.837-.945,1.97,1.97,0,0,0-1.819.94A5.817,5.817,0,0,0,21.263,9.2v2.6a6.053,6.053,0,0,0,.6,3.063,1.993,1.993,0,0,0,1.824.989,1.966,1.966,0,0,0,1.789-.932,5.834,5.834,0,0,0,.611-2.936Zm11.733,2.224a7.436,7.436,0,0,1-.976,4.245,3.47,3.47,0,0,1-3.05,1.389,3.5,3.5,0,0,1-3.032-1.358,7.058,7.058,0,0,1-1.02-4.056V9.591A7.271,7.271,0,0,1,30.72,5.4a3.5,3.5,0,0,1,3.059-1.371A3.528,3.528,0,0,1,36.82,5.35a7.017,7.017,0,0,1,1,4.083ZM36.2,9.318a5.958,5.958,0,0,0-.58-3.01,2,2,0,0,0-1.837-.945,1.97,1.97,0,0,0-1.819.94A5.817,5.817,0,0,0,31.371,9.2v2.6a6.053,6.053,0,0,0,.6,3.063,1.993,1.993,0,0,0,1.824.989,1.966,1.966,0,0,0,1.789-.932,5.834,5.834,0,0,0,.611-2.936ZM44.22,6.664a2.6,2.6,0,0,1,.734-1.9,2.757,2.757,0,0,1,3.779,0,2.687,2.687,0,0,1,.725,1.947v.624a2.563,2.563,0,0,1-.734,1.894,2.53,2.53,0,0,1-1.868.734,2.586,2.586,0,0,1-1.89-.734,2.617,2.617,0,0,1-.747-1.956Zm1.213.673a1.663,1.663,0,0,0,.387,1.132,1.3,1.3,0,0,0,1.037.445,1.28,1.28,0,0,0,1.006-.432,1.717,1.717,0,0,0,.382-1.18V6.659a1.7,1.7,0,0,0-.378-1.136,1.4,1.4,0,0,0-2.057,0,1.759,1.759,0,0,0-.378,1.172Zm5.019,6.525a2.582,2.582,0,0,1,.734-1.894,2.776,2.776,0,0,1,3.775,0,2.649,2.649,0,0,1,.738,1.96v.624a2.582,2.582,0,0,1-.734,1.894,2.525,2.525,0,0,1-1.876.743,2.586,2.586,0,0,1-1.89-.734,2.617,2.617,0,0,1-.747-1.956Zm1.213.682a1.676,1.676,0,0,0,.387,1.141,1.3,1.3,0,0,0,1.037.445,1.27,1.27,0,0,0,1.011-.436,1.748,1.748,0,0,0,.378-1.185v-.652a1.671,1.671,0,0,0-.382-1.136,1.405,1.405,0,0,0-2.039,0,1.7,1.7,0,0,0-.391,1.176Zm-4.438,1.489-.923-.58,6.249-10,.923.58Z" transform="translate(619.307 176)" fill="#888"/></g><g transform="translate(24 88)"><path d="M6,0H605V32H6a6,6,0,0,1-6-6V6A6,6,0,0,1,6,0Z" transform="translate(192 48)" fill="#68b300"/><path d="M6,0H576V32H6a6,6,0,0,1-6-6V6A6,6,0,0,1,6,0Z" transform="translate(192 96)" fill="#68b300"/><path d="M6,0H531V32H6a6,6,0,0,1-6-6V6A6,6,0,0,1,6,0Z" transform="translate(192)" fill="#68b300"/><path d="M37.152,7.578a2.975,2.975,0,0,1-.483,1.674,3.353,3.353,0,0,1-1.318,1.156,3.652,3.652,0,0,1,1.542,1.274,3.215,3.215,0,0,1,.541,1.828,3.357,3.357,0,0,1-1.143,2.676,4.485,4.485,0,0,1-3.041.989,4.5,4.5,0,0,1-3.054-.993,3.355,3.355,0,0,1-1.147-2.672,3.252,3.252,0,0,1,.545-1.846,3.5,3.5,0,0,1,1.529-1.257,3.334,3.334,0,0,1-1.305-1.156,3,3,0,0,1-.479-1.674,3.329,3.329,0,0,1,1.055-2.593,4.074,4.074,0,0,1,2.848-.958,4.088,4.088,0,0,1,2.856.958A3.329,3.329,0,0,1,37.152,7.578ZM35.3,13.405a2.11,2.11,0,0,0-.567-1.534,1.993,1.993,0,0,0-1.5-.584,1.971,1.971,0,0,0-1.49.58,2.125,2.125,0,0,0-.558,1.538,2.059,2.059,0,0,0,.549,1.5,2.341,2.341,0,0,0,3.023.018A2.065,2.065,0,0,0,35.3,13.405Zm-.272-5.748a1.986,1.986,0,0,0-.483-1.375,1.857,1.857,0,0,0-2.593-.026,1.987,1.987,0,0,0-.475,1.4,1.979,1.979,0,0,0,.479,1.4,1.88,1.88,0,0,0,2.593,0A1.979,1.979,0,0,0,35.025,7.657ZM45.968,4.142V5.908H45.7a4.239,4.239,0,0,0-2.865.984,4.119,4.119,0,0,0-1.274,2.716,3.468,3.468,0,0,1,2.628-1.081,3.276,3.276,0,0,1,2.676,1.2,4.708,4.708,0,0,1,.98,3.085,4.4,4.4,0,0,1-1.147,3.16,3.959,3.959,0,0,1-3.01,1.208,3.867,3.867,0,0,1-3.107-1.415,5.566,5.566,0,0,1-1.191-3.709v-.729a7.832,7.832,0,0,1,1.639-5.273,5.877,5.877,0,0,1,4.715-1.907ZM43.674,10.25a2.249,2.249,0,0,0-1.288.4,2.312,2.312,0,0,0-.857,1.055v.65a3.831,3.831,0,0,0,.6,2.263,1.823,1.823,0,0,0,1.547.839,1.8,1.8,0,0,0,1.5-.712,2.965,2.965,0,0,0,.554-1.872,3.007,3.007,0,0,0-.562-1.89A1.793,1.793,0,0,0,43.674,10.25Zm6.319,9.633L48.842,19.2a6.21,6.21,0,0,0,.7-1.393,4.157,4.157,0,0,0,.2-1.208V14.935h1.925l-.009,1.538a4.287,4.287,0,0,1-.47,1.868A4.64,4.64,0,0,1,49.993,19.883ZM62.025,5.39,56.91,17H54.669L59.775,5.917H53.157V4.2h8.868Zm1.626,1.274a2.568,2.568,0,0,1,.747-1.9,2.975,2.975,0,0,1,3.933,0,2.633,2.633,0,0,1,.743,1.947v.633a2.551,2.551,0,0,1-.743,1.89,2.653,2.653,0,0,1-1.956.738,2.737,2.737,0,0,1-1.956-.725,2.559,2.559,0,0,1-.769-1.956Zm1.494.673a1.41,1.41,0,0,0,.338.983,1.145,1.145,0,0,0,.892.374,1.121,1.121,0,0,0,.879-.374A1.474,1.474,0,0,0,67.589,7.3V6.659a1.426,1.426,0,0,0-.338-.987,1.138,1.138,0,0,0-.892-.379,1.106,1.106,0,0,0-.883.383,1.493,1.493,0,0,0-.33,1.009ZM69.8,13.862a2.516,2.516,0,0,1,.765-1.907,2.98,2.98,0,0,1,3.907,0,2.6,2.6,0,0,1,.76,1.969v.624a2.571,2.571,0,0,1-.734,1.885,2.637,2.637,0,0,1-1.964.743,2.715,2.715,0,0,1-1.982-.734A2.586,2.586,0,0,1,69.8,14.5Zm1.494.677a1.4,1.4,0,0,0,.347.98,1.151,1.151,0,0,0,.892.382,1.115,1.115,0,0,0,.883-.365,1.5,1.5,0,0,0,.321-1.024v-.659a1.389,1.389,0,0,0-.343-.984,1.236,1.236,0,0,0-1.762,0,1.452,1.452,0,0,0-.338,1.02Zm-4.482,1.5-1.1-.633,6.249-10,1.1.633Z" transform="translate(714 54)" fill="#fff"/><path d="M37.609,5.39,32.494,17H30.253L35.359,5.917H28.741V4.2h8.868Zm7.77,6.258a3.491,3.491,0,0,1-5.194-.048,4.642,4.642,0,0,1-1-3.107,5.094,5.094,0,0,1,.51-2.294,3.8,3.8,0,0,1,1.45-1.6,4.115,4.115,0,0,1,2.18-.571A3.7,3.7,0,0,1,46.39,5.469a6.071,6.071,0,0,1,1.134,3.858v.6a7.885,7.885,0,0,1-1.564,5.282,5.889,5.889,0,0,1-4.667,1.846h-.255V15.286h.308a4.373,4.373,0,0,0,2.9-.91A3.792,3.792,0,0,0,45.379,11.647Zm-2.057-.536a2.155,2.155,0,0,0,1.2-.369,2.432,2.432,0,0,0,.87-1.02V8.888a4.009,4.009,0,0,0-.58-2.276,1.748,1.748,0,0,0-1.5-.861,1.727,1.727,0,0,0-1.472.76,3.2,3.2,0,0,0-.549,1.92,3.156,3.156,0,0,0,.554,1.942A1.754,1.754,0,0,0,43.322,11.111Zm6.671,8.771L48.842,19.2a6.21,6.21,0,0,0,.7-1.393,4.157,4.157,0,0,0,.2-1.208V14.935h1.925l-.009,1.538a4.287,4.287,0,0,1-.47,1.868A4.64,4.64,0,0,1,49.993,19.883Zm10.74-7.444h1.591v1.714H60.733V17H58.6V14.152H53.069l-.062-1.3L58.527,4.2h2.206Zm-5.484,0H58.6V7.095l-.158.281Zm8.4-5.774a2.568,2.568,0,0,1,.747-1.9,2.975,2.975,0,0,1,3.933,0,2.633,2.633,0,0,1,.743,1.947v.633a2.551,2.551,0,0,1-.743,1.89,2.653,2.653,0,0,1-1.956.738,2.737,2.737,0,0,1-1.956-.725,2.559,2.559,0,0,1-.769-1.956Zm1.494.673a1.41,1.41,0,0,0,.338.983,1.145,1.145,0,0,0,.892.374,1.121,1.121,0,0,0,.879-.374A1.474,1.474,0,0,0,67.589,7.3V6.659a1.426,1.426,0,0,0-.338-.987,1.138,1.138,0,0,0-.892-.379,1.106,1.106,0,0,0-.883.383,1.493,1.493,0,0,0-.33,1.009ZM69.8,13.862a2.516,2.516,0,0,1,.765-1.907,2.98,2.98,0,0,1,3.907,0,2.6,2.6,0,0,1,.76,1.969v.624a2.571,2.571,0,0,1-.734,1.885,2.637,2.637,0,0,1-1.964.743,2.715,2.715,0,0,1-1.982-.734A2.586,2.586,0,0,1,69.8,14.5Zm1.494.677a1.4,1.4,0,0,0,.347.98,1.151,1.151,0,0,0,.892.382,1.115,1.115,0,0,0,.883-.365,1.5,1.5,0,0,0,.321-1.024v-.659a1.389,1.389,0,0,0-.343-.984,1.236,1.236,0,0,0-1.762,0,1.452,1.452,0,0,0-.338,1.02Zm-4.482,1.5-1.1-.633,6.249-10,1.1.633Z" transform="translate(680 102)" fill="#fff"/><path d="M21.609,5.39,16.494,17H14.253L19.359,5.917H12.741V4.2h8.868Zm2.285,5.265L24.589,4.2h6.873V6.049h-5.1l-.352,3.059a3.951,3.951,0,0,1,2-.51A3.565,3.565,0,0,1,30.86,9.767a4.632,4.632,0,0,1,1.015,3.146A4.264,4.264,0,0,1,30.75,16.02a4.106,4.106,0,0,1-3.085,1.156,4.3,4.3,0,0,1-2.914-1A3.606,3.606,0,0,1,23.5,13.546h2.065a2.256,2.256,0,0,0,.668,1.428,2.032,2.032,0,0,0,1.424.5,1.836,1.836,0,0,0,1.534-.7,3.035,3.035,0,0,0,.549-1.916A2.682,2.682,0,0,0,29.133,11a2.121,2.121,0,0,0-1.67-.681,2.333,2.333,0,0,0-1.863.756Zm10.1,9.229L32.842,19.2a6.21,6.21,0,0,0,.7-1.393,4.157,4.157,0,0,0,.2-1.208V14.935h1.925l-.009,1.538a4.287,4.287,0,0,1-.47,1.868A4.64,4.64,0,0,1,33.993,19.883ZM46.113,17h-8.6V15.532l4.263-4.649a10.615,10.615,0,0,0,1.314-1.718,2.784,2.784,0,0,0,.391-1.384A2.1,2.1,0,0,0,42.962,6.3a1.783,1.783,0,0,0-1.384-.562,2.056,2.056,0,0,0-1.608.633A2.489,2.489,0,0,0,39.4,8.105H37.263A4.186,4.186,0,0,1,37.794,6a3.662,3.662,0,0,1,1.521-1.455A4.84,4.84,0,0,1,41.6,4.027a4.329,4.329,0,0,1,2.94.936,3.249,3.249,0,0,1,1.077,2.588,4.392,4.392,0,0,1-.541,2.008A11.42,11.42,0,0,1,43.3,11.946l-3.129,3.349h5.941ZM47.651,6.664a2.568,2.568,0,0,1,.747-1.9,2.975,2.975,0,0,1,3.933,0,2.633,2.633,0,0,1,.743,1.947v.633a2.551,2.551,0,0,1-.743,1.89,2.653,2.653,0,0,1-1.956.738,2.737,2.737,0,0,1-1.956-.725,2.559,2.559,0,0,1-.769-1.956Zm1.494.673a1.41,1.41,0,0,0,.338.983,1.145,1.145,0,0,0,.892.374,1.121,1.121,0,0,0,.879-.374A1.474,1.474,0,0,0,51.589,7.3V6.659a1.426,1.426,0,0,0-.338-.987,1.138,1.138,0,0,0-.892-.379,1.106,1.106,0,0,0-.883.383,1.493,1.493,0,0,0-.33,1.009ZM53.8,13.862a2.516,2.516,0,0,1,.765-1.907,2.98,2.98,0,0,1,3.907,0,2.6,2.6,0,0,1,.76,1.969v.624a2.571,2.571,0,0,1-.734,1.885,2.637,2.637,0,0,1-1.964.743,2.715,2.715,0,0,1-1.982-.734A2.586,2.586,0,0,1,53.8,14.5Zm1.494.677a1.4,1.4,0,0,0,.347.98,1.151,1.151,0,0,0,.892.382,1.115,1.115,0,0,0,.883-.365,1.5,1.5,0,0,0,.321-1.024v-.659a1.389,1.389,0,0,0-.343-.984,1.236,1.236,0,0,0-1.762,0,1.452,1.452,0,0,0-.338,1.02Zm-4.482,1.5-1.1-.633,6.249-10,1.1.633Z" transform="translate(655 6)" fill="#fff"/><path d="M107,15.62h6.064V17H105.3V4.2H107Zm16.831-2.681a4.708,4.708,0,0,1-1.5,3.133,4.911,4.911,0,0,1-3.353,1.1,4.509,4.509,0,0,1-3.634-1.626,6.542,6.542,0,0,1-1.367-4.351V9.969a7.291,7.291,0,0,1,.637-3.138,4.76,4.76,0,0,1,1.806-2.079,5.029,5.029,0,0,1,2.707-.725,4.624,4.624,0,0,1,3.27,1.138,4.765,4.765,0,0,1,1.433,3.151h-1.7a3.677,3.677,0,0,0-.954-2.222,2.885,2.885,0,0,0-2.052-.688,3.019,3.019,0,0,0-2.536,1.2,5.492,5.492,0,0,0-.918,3.4v1.24a5.645,5.645,0,0,0,.87,3.316,2.812,2.812,0,0,0,2.435,1.231,3.247,3.247,0,0,0,2.158-.637,3.536,3.536,0,0,0,1-2.219Zm3.99-.949V17H126.13V4.2h4.72a4.742,4.742,0,0,1,3.292,1.072,3.635,3.635,0,0,1,1.191,2.839,3.587,3.587,0,0,1-1.165,2.87,4.954,4.954,0,0,1-3.335,1.006Zm0-1.38h3.032a3.032,3.032,0,0,0,2.074-.638,2.334,2.334,0,0,0,.721-1.845,2.411,2.411,0,0,0-.721-1.831,2.84,2.84,0,0,0-1.978-.713h-3.129Z" transform="translate(31 5)" fill="#111"/><path d="M9.719,13.508a3.465,3.465,0,0,1-1.613,1.238,6.517,6.517,0,0,1-2.41.41A4.674,4.674,0,0,1,3.227,14.5a4.346,4.346,0,0,1-1.668-1.855A6.408,6.408,0,0,1,.953,9.859V8.867a5.982,5.982,0,0,1,1.2-3.984A4.179,4.179,0,0,1,5.523,3.469a4.316,4.316,0,0,1,2.867.91A3.965,3.965,0,0,1,9.719,6.961h-1.5A2.48,2.48,0,0,0,5.531,4.7a2.655,2.655,0,0,0-2.285,1.06,5.173,5.173,0,0,0-.785,3.069v.93A4.848,4.848,0,0,0,3.336,12.8,2.836,2.836,0,0,0,5.7,13.93a5.228,5.228,0,0,0,1.477-.187,2.283,2.283,0,0,0,1.047-.631V10.563H5.594V9.336H9.719Zm7.492.656a3.07,3.07,0,0,1-2.477.992,2.628,2.628,0,0,1-2.059-.785,3.4,3.4,0,0,1-.715-2.324v-5.5h1.445v5.461q0,1.922,1.563,1.922a2.163,2.163,0,0,0,2.2-1.234V6.547h1.445V15H17.242ZM22.773,4.5V6.547h1.578V7.664H22.773v5.249a1.173,1.173,0,0,0,.211.763.888.888,0,0,0,.719.254,3.5,3.5,0,0,0,.688-.094V15a4.215,4.215,0,0,1-1.109.155,1.8,1.8,0,0,1-1.461-.586,2.517,2.517,0,0,1-.492-1.664V7.664H19.789V6.547h1.539V4.5Z" transform="translate(218 240)" fill="#111"/><path d="M5.086,13.008l3.25-9.383H9.977L5.758,15H4.43L.219,3.625H1.852Zm9.352,2.148a3.693,3.693,0,0,1-2.8-1.129,4.19,4.19,0,0,1-1.078-3.02v-.266a5.073,5.073,0,0,1,.48-2.246,3.748,3.748,0,0,1,1.344-1.547,3.378,3.378,0,0,1,1.871-.559A3.166,3.166,0,0,1,16.82,7.477a4.7,4.7,0,0,1,.914,3.109v.6H12.008a3,3,0,0,0,.73,2.02,2.3,2.3,0,0,0,1.777.77,2.517,2.517,0,0,0,1.3-.312,3.259,3.259,0,0,0,.93-.828l.883.688A3.55,3.55,0,0,1,14.438,15.156Zm-.18-7.578a1.928,1.928,0,0,0-1.469.637A3.1,3.1,0,0,0,12.055,10h4.234V9.891A2.753,2.753,0,0,0,15.7,8.184,1.815,1.815,0,0,0,14.258,7.578Zm9.234.266a4.331,4.331,0,0,0-.711-.055A1.9,1.9,0,0,0,20.852,9v6H19.406V6.547h1.406l.023.977a2.251,2.251,0,0,1,2.016-1.133,1.477,1.477,0,0,1,.641.109Zm8.484,3.023a5.026,5.026,0,0,1-.891,3.113A2.846,2.846,0,0,1,28.7,15.156a2.947,2.947,0,0,1-2.477-1.133l-.07.977H24.82V3h1.445V7.477A2.93,2.93,0,0,1,28.68,6.391,2.863,2.863,0,0,1,31.1,7.555a5.177,5.177,0,0,1,.879,3.188ZM30.531,10.7a3.906,3.906,0,0,0-.57-2.281,1.888,1.888,0,0,0-1.641-.8,2.122,2.122,0,0,0-2.055,1.328V12.6a2.181,2.181,0,0,0,2.07,1.328,1.878,1.878,0,0,0,1.617-.8A4.153,4.153,0,0,0,30.531,10.7ZM37.3,15.156a3.693,3.693,0,0,1-2.8-1.129,4.19,4.19,0,0,1-1.078-3.02v-.266A5.073,5.073,0,0,1,33.91,8.5a3.748,3.748,0,0,1,1.344-1.547,3.378,3.378,0,0,1,1.871-.559,3.166,3.166,0,0,1,2.563,1.086,4.7,4.7,0,0,1,.914,3.109v.6H34.875a3,3,0,0,0,.73,2.02,2.3,2.3,0,0,0,1.777.77,2.517,2.517,0,0,0,1.3-.312,3.259,3.259,0,0,0,.93-.828l.883.688A3.55,3.55,0,0,1,37.3,15.156Zm-.18-7.578a1.928,1.928,0,0,0-1.469.637A3.1,3.1,0,0,0,34.922,10h4.234V9.891a2.753,2.753,0,0,0-.594-1.707A1.815,1.815,0,0,0,37.125,7.578Zm10.07,5.18a1.064,1.064,0,0,0-.441-.91,4.249,4.249,0,0,0-1.539-.559,7.277,7.277,0,0,1-1.742-.562,2.479,2.479,0,0,1-.953-.781,1.869,1.869,0,0,1-.309-1.078,2.193,2.193,0,0,1,.879-1.758,3.432,3.432,0,0,1,2.246-.719,3.532,3.532,0,0,1,2.332.742,2.357,2.357,0,0,1,.895,1.9H47.109a1.3,1.3,0,0,0-.5-1.023,1.888,1.888,0,0,0-1.27-.43,1.976,1.976,0,0,0-1.234.344,1.082,1.082,0,0,0-.445.9.877.877,0,0,0,.414.789,5.1,5.1,0,0,0,1.5.508,7.8,7.8,0,0,1,1.754.578,2.558,2.558,0,0,1,1,.809,1.988,1.988,0,0,1,.324,1.152,2.163,2.163,0,0,1-.906,1.816,3.8,3.8,0,0,1-2.352.684,4.257,4.257,0,0,1-1.8-.359,2.922,2.922,0,0,1-1.223-1,2.42,2.42,0,0,1-.441-1.395h1.445a1.5,1.5,0,0,0,.582,1.152,2.258,2.258,0,0,0,1.434.426,2.331,2.331,0,0,0,1.316-.332A1.02,1.02,0,0,0,47.2,12.758Zm8.25,0a1.064,1.064,0,0,0-.441-.91,4.249,4.249,0,0,0-1.539-.559,7.277,7.277,0,0,1-1.742-.562,2.479,2.479,0,0,1-.953-.781,1.869,1.869,0,0,1-.309-1.078,2.193,2.193,0,0,1,.879-1.758,3.432,3.432,0,0,1,2.246-.719,3.532,3.532,0,0,1,2.332.742,2.357,2.357,0,0,1,.895,1.9H55.359a1.3,1.3,0,0,0-.5-1.023,1.888,1.888,0,0,0-1.27-.43,1.976,1.976,0,0,0-1.234.344,1.082,1.082,0,0,0-.445.9.877.877,0,0,0,.414.789,5.1,5.1,0,0,0,1.5.508,7.8,7.8,0,0,1,1.754.578,2.558,2.558,0,0,1,1,.809,1.988,1.988,0,0,1,.324,1.152,2.163,2.163,0,0,1-.906,1.816,3.8,3.8,0,0,1-2.352.684,4.257,4.257,0,0,1-1.8-.359,2.922,2.922,0,0,1-1.223-1,2.42,2.42,0,0,1-.441-1.395h1.445a1.5,1.5,0,0,0,.582,1.152,2.258,2.258,0,0,0,1.434.426,2.331,2.331,0,0,0,1.316-.332A1.02,1.02,0,0,0,55.445,12.758Zm6.836,2.4a3.693,3.693,0,0,1-2.8-1.129,4.19,4.19,0,0,1-1.078-3.02v-.266a5.073,5.073,0,0,1,.48-2.246A3.748,3.748,0,0,1,60.23,6.949,3.378,3.378,0,0,1,62.1,6.391a3.166,3.166,0,0,1,2.563,1.086,4.7,4.7,0,0,1,.914,3.109v.6H59.852a3,3,0,0,0,.73,2.02,2.3,2.3,0,0,0,1.777.77,2.517,2.517,0,0,0,1.3-.312,3.259,3.259,0,0,0,.93-.828l.883.688A3.55,3.55,0,0,1,62.281,15.156ZM62.1,7.578a1.928,1.928,0,0,0-1.469.637A3.1,3.1,0,0,0,59.9,10h4.234V9.891a2.753,2.753,0,0,0-.594-1.707A1.815,1.815,0,0,0,62.1,7.578Zm9.234.266a4.331,4.331,0,0,0-.711-.055A1.9,1.9,0,0,0,68.7,9v6H67.25V6.547h1.406l.023.977A2.251,2.251,0,0,1,70.7,6.391a1.477,1.477,0,0,1,.641.109Zm6.547,6.32a3.07,3.07,0,0,1-2.477.992,2.628,2.628,0,0,1-2.059-.785,3.4,3.4,0,0,1-.715-2.324v-5.5h1.445v5.461q0,1.922,1.563,1.922a2.163,2.163,0,0,0,2.2-1.234V6.547h1.445V15H77.914Zm4.969-7.617L82.9,7.609A3.08,3.08,0,0,1,85.43,6.391q2.68,0,2.7,3.023V15H86.688V9.406a1.946,1.946,0,0,0-.418-1.352,1.675,1.675,0,0,0-1.277-.437,2.086,2.086,0,0,0-1.234.375,2.546,2.546,0,0,0-.828.984V15H81.484V6.547ZM89.969,10.7a4.968,4.968,0,0,1,.914-3.145,3.151,3.151,0,0,1,4.836-.074l.07-.937h1.32V14.8a3.439,3.439,0,0,1-.973,2.586,3.589,3.589,0,0,1-2.613.945,4.348,4.348,0,0,1-1.789-.391,3.08,3.08,0,0,1-1.336-1.07l.75-.867a2.826,2.826,0,0,0,2.273,1.148,2.214,2.214,0,0,0,1.645-.594,2.269,2.269,0,0,0,.59-1.672v-.727a2.971,2.971,0,0,1-2.367,1,2.887,2.887,0,0,1-2.4-1.2A5.224,5.224,0,0,1,89.969,10.7Zm1.453.164a3.79,3.79,0,0,0,.586,2.246,1.9,1.9,0,0,0,1.641.816,2.117,2.117,0,0,0,2.008-1.242V8.828a2.142,2.142,0,0,0-1.992-1.211,1.921,1.921,0,0,0-1.648.82A4.128,4.128,0,0,0,91.422,10.867Zm12.789,1.891a1.064,1.064,0,0,0-.441-.91,4.249,4.249,0,0,0-1.539-.559,7.277,7.277,0,0,1-1.742-.562,2.479,2.479,0,0,1-.953-.781,1.869,1.869,0,0,1-.309-1.078,2.193,2.193,0,0,1,.879-1.758,3.432,3.432,0,0,1,2.246-.719,3.532,3.532,0,0,1,2.332.742,2.357,2.357,0,0,1,.895,1.9h-1.453a1.3,1.3,0,0,0-.5-1.023,1.888,1.888,0,0,0-1.27-.43,1.976,1.976,0,0,0-1.234.344,1.082,1.082,0,0,0-.445.9.877.877,0,0,0,.414.789,5.1,5.1,0,0,0,1.5.508,7.8,7.8,0,0,1,1.754.578,2.558,2.558,0,0,1,1,.809,1.988,1.988,0,0,1,.324,1.152,2.163,2.163,0,0,1-.906,1.816,3.8,3.8,0,0,1-2.352.684,4.257,4.257,0,0,1-1.8-.359,2.922,2.922,0,0,1-1.223-1,2.42,2.42,0,0,1-.441-1.395h1.445a1.5,1.5,0,0,0,.582,1.152,2.258,2.258,0,0,0,1.434.426,2.331,2.331,0,0,0,1.316-.332A1.02,1.02,0,0,0,104.211,12.758Zm10.813.25,1.625-6.461h1.445L115.633,15h-1.172l-2.055-6.406-2,6.406h-1.172l-2.453-8.453h1.438l1.664,6.328,1.969-6.328h1.164Zm9.758,1.156a3.07,3.07,0,0,1-2.477.992,2.628,2.628,0,0,1-2.059-.785,3.4,3.4,0,0,1-.715-2.324v-5.5h1.445v5.461q0,1.922,1.563,1.922a2.163,2.163,0,0,0,2.2-1.234V6.547h1.445V15h-1.375Zm-4.4-9.879a.855.855,0,0,1,.215-.593.812.812,0,0,1,.637-.239.824.824,0,0,1,.641.239.846.846,0,0,1,.219.593.784.784,0,0,1-.859.824.819.819,0,0,1-.637-.235A.84.84,0,0,1,120.383,4.285Zm3.359.016a.869.869,0,0,1,.215-.6.8.8,0,0,1,.637-.243.817.817,0,0,1,.641.243.86.86,0,0,1,.219.6.784.784,0,0,1-.859.824.819.819,0,0,1-.637-.235A.84.84,0,0,1,123.742,4.3Zm8.727,3.543a4.331,4.331,0,0,0-.711-.055A1.9,1.9,0,0,0,129.828,9v6h-1.445V6.547h1.406l.023.977a2.251,2.251,0,0,1,2.016-1.133,1.477,1.477,0,0,1,.641.109ZM133.3,10.7a4.952,4.952,0,0,1,.922-3.129,3.137,3.137,0,0,1,4.766-.168V3h1.445V15H139.1l-.07-.906a2.943,2.943,0,0,1-2.414,1.063,2.887,2.887,0,0,1-2.395-1.2,5.008,5.008,0,0,1-.926-3.141Zm1.445.164a3.749,3.749,0,0,0,.594,2.25,1.919,1.919,0,0,0,1.641.813,2.108,2.108,0,0,0,2.008-1.234V8.813a2.125,2.125,0,0,0-1.992-1.2,1.929,1.929,0,0,0-1.656.82A4.128,4.128,0,0,0,134.742,10.867Zm9.5,4.133H142.8V6.547h1.445ZM142.68,4.3a.863.863,0,0,1,.215-.594.807.807,0,0,1,.637-.242.819.819,0,0,1,.641.242.854.854,0,0,1,.219.594.826.826,0,0,1-.219.586.834.834,0,0,1-.641.234.821.821,0,0,1-.637-.234A.834.834,0,0,1,142.68,4.3Zm3.531,6.4a4.968,4.968,0,0,1,.914-3.145,3.151,3.151,0,0,1,4.836-.074l.07-.937h1.32V14.8a3.439,3.439,0,0,1-.973,2.586,3.589,3.589,0,0,1-2.613.945,4.348,4.348,0,0,1-1.789-.391,3.08,3.08,0,0,1-1.336-1.07l.75-.867a2.826,2.826,0,0,0,2.273,1.148,2.214,2.214,0,0,0,1.645-.594,2.269,2.269,0,0,0,.59-1.672v-.727a2.971,2.971,0,0,1-2.367,1,2.887,2.887,0,0,1-2.4-1.2A5.224,5.224,0,0,1,146.211,10.7Zm1.453.164a3.79,3.79,0,0,0,.586,2.246,1.9,1.9,0,0,0,1.641.816,2.117,2.117,0,0,0,2.008-1.242V8.828a2.142,2.142,0,0,0-1.992-1.211,1.921,1.921,0,0,0-1.648.82A4.128,4.128,0,0,0,147.664,10.867Z" transform="translate(306 240)" fill="#111"/><path d="M4.672,9.93A7.053,7.053,0,0,1,1.863,8.566a2.6,2.6,0,0,1-.879-2A2.751,2.751,0,0,1,2.059,4.348a4.269,4.269,0,0,1,2.793-.879,4.66,4.66,0,0,1,2.09.453,3.436,3.436,0,0,1,1.422,1.25,3.2,3.2,0,0,1,.5,1.742H7.359A2.08,2.08,0,0,0,6.7,5.287,2.669,2.669,0,0,0,4.852,4.7a2.732,2.732,0,0,0-1.73.489A1.632,1.632,0,0,0,2.5,6.542,1.468,1.468,0,0,0,3.09,7.72,5.785,5.785,0,0,0,5.1,8.6a9.316,9.316,0,0,1,2.219.88A3.367,3.367,0,0,1,8.5,10.6a2.861,2.861,0,0,1,.387,1.508,2.658,2.658,0,0,1-1.078,2.215,4.6,4.6,0,0,1-2.883.832,5.347,5.347,0,0,1-2.187-.449,3.681,3.681,0,0,1-1.566-1.23A3,3,0,0,1,.625,11.7H2.133a1.959,1.959,0,0,0,.762,1.629,3.207,3.207,0,0,0,2.035.6,2.948,2.948,0,0,0,1.82-.484,1.573,1.573,0,0,0,.633-1.32A1.545,1.545,0,0,0,6.8,10.832,6.755,6.755,0,0,0,4.672,9.93Zm9.3,4.047a2.082,2.082,0,0,0,1.352-.469,1.649,1.649,0,0,0,.641-1.172h1.367a2.621,2.621,0,0,1-.5,1.383,3.293,3.293,0,0,1-1.23,1.047,3.55,3.55,0,0,1-1.629.391A3.482,3.482,0,0,1,11.23,14a4.59,4.59,0,0,1-1.02-3.152v-.242a5.089,5.089,0,0,1,.453-2.2,3.451,3.451,0,0,1,1.3-1.492,3.7,3.7,0,0,1,2-.531,3.39,3.39,0,0,1,2.363.852,3.043,3.043,0,0,1,1,2.211H15.969a1.992,1.992,0,0,0-.621-1.348,1.932,1.932,0,0,0-1.379-.527,2.023,2.023,0,0,0-1.707.793,3.724,3.724,0,0,0-.605,2.293v.273a3.65,3.65,0,0,0,.6,2.25A2.033,2.033,0,0,0,13.977,13.977Zm6.43-6.406a3.073,3.073,0,0,1,2.5-1.18q2.68,0,2.7,3.023V15H24.164V9.406a1.946,1.946,0,0,0-.418-1.352,1.675,1.675,0,0,0-1.277-.437,2.086,2.086,0,0,0-1.234.375,2.546,2.546,0,0,0-.828.984V15H18.961V3h1.445ZM29.344,15H27.9V3h1.445Zm5.82.156a3.693,3.693,0,0,1-2.8-1.129,4.19,4.19,0,0,1-1.078-3.02v-.266A5.073,5.073,0,0,1,31.77,8.5a3.748,3.748,0,0,1,1.344-1.547,3.378,3.378,0,0,1,1.871-.559,3.166,3.166,0,0,1,2.563,1.086,4.7,4.7,0,0,1,.914,3.109v.6H32.734a3,3,0,0,0,.73,2.02,2.3,2.3,0,0,0,1.777.77,2.517,2.517,0,0,0,1.3-.312,3.259,3.259,0,0,0,.93-.828l.883.688A3.55,3.55,0,0,1,35.164,15.156Zm-.18-7.578a1.928,1.928,0,0,0-1.469.637A3.1,3.1,0,0,0,32.781,10h4.234V9.891a2.753,2.753,0,0,0-.594-1.707A1.815,1.815,0,0,0,34.984,7.578Zm8.539,6.4a2.082,2.082,0,0,0,1.352-.469,1.649,1.649,0,0,0,.641-1.172h1.367a2.621,2.621,0,0,1-.5,1.383,3.293,3.293,0,0,1-1.23,1.047,3.55,3.55,0,0,1-1.629.391A3.482,3.482,0,0,1,40.777,14a4.59,4.59,0,0,1-1.02-3.152v-.242a5.089,5.089,0,0,1,.453-2.2,3.451,3.451,0,0,1,1.3-1.492,3.7,3.7,0,0,1,2-.531,3.39,3.39,0,0,1,2.363.852,3.043,3.043,0,0,1,1,2.211H45.516a1.992,1.992,0,0,0-.621-1.348,1.932,1.932,0,0,0-1.379-.527,2.023,2.023,0,0,0-1.707.793,3.724,3.724,0,0,0-.605,2.293v.273a3.65,3.65,0,0,0,.6,2.25A2.033,2.033,0,0,0,43.523,13.977Zm6.43-6.406a3.073,3.073,0,0,1,2.5-1.18q2.68,0,2.7,3.023V15H53.711V9.406a1.946,1.946,0,0,0-.418-1.352,1.675,1.675,0,0,0-1.277-.437,2.086,2.086,0,0,0-1.234.375,2.546,2.546,0,0,0-.828.984V15H48.508V3h1.445ZM59.281,4.5V6.547h1.578V7.664H59.281v5.249a1.173,1.173,0,0,0,.211.763.888.888,0,0,0,.719.254,3.5,3.5,0,0,0,.688-.094V15a4.215,4.215,0,0,1-1.109.155,1.8,1.8,0,0,1-1.461-.586,2.517,2.517,0,0,1-.492-1.664V7.664H56.3V6.547h1.539V4.5Z" transform="translate(522 240)" fill="#111"/><path d="M117.895,11.349h-5.37V17h-1.687V4.2h7.928v1.38h-6.24V9.969h5.37ZM122.6,17h-1.687V4.2H122.6Zm3.085,0V4.2h3.612a5.815,5.815,0,0,1,2.953.738,4.993,4.993,0,0,1,1.982,2.1,6.837,6.837,0,0,1,.708,3.129v.817a6.861,6.861,0,0,1-.7,3.173,4.915,4.915,0,0,1-2,2.092,6.185,6.185,0,0,1-3.019.747Zm1.688-11.417V15.62h1.775a3.863,3.863,0,0,0,3.037-1.214,5.016,5.016,0,0,0,1.085-3.457V10.2a5.1,5.1,0,0,0-1.024-3.391,3.644,3.644,0,0,0-2.9-1.227Z" transform="translate(31 54)" fill="#111"/><path d="M114.818,12.939a4.708,4.708,0,0,1-1.5,3.133,4.911,4.911,0,0,1-3.353,1.1,4.509,4.509,0,0,1-3.634-1.626,6.542,6.542,0,0,1-1.367-4.351V9.969a7.291,7.291,0,0,1,.637-3.138,4.76,4.76,0,0,1,1.806-2.079,5.029,5.029,0,0,1,2.707-.725,4.624,4.624,0,0,1,3.27,1.138,4.765,4.765,0,0,1,1.433,3.151h-1.7a3.677,3.677,0,0,0-.954-2.222,2.885,2.885,0,0,0-2.052-.688,3.019,3.019,0,0,0-2.536,1.2,5.492,5.492,0,0,0-.918,3.4v1.24a5.645,5.645,0,0,0,.87,3.316,2.812,2.812,0,0,0,2.435,1.231,3.247,3.247,0,0,0,2.158-.637,3.536,3.536,0,0,0,1-2.219Zm4,2.681h6.064V17h-7.761V4.2h1.7Zm11.76-4.324a7.935,7.935,0,0,1-3.16-1.534,2.93,2.93,0,0,1-.989-2.246,3.1,3.1,0,0,1,1.208-2.5,4.8,4.8,0,0,1,3.142-.989,5.243,5.243,0,0,1,2.351.51,3.866,3.866,0,0,1,1.6,1.406A3.6,3.6,0,0,1,135.3,7.9h-1.7a2.34,2.34,0,0,0-.738-1.83,3,3,0,0,0-2.083-.666,3.074,3.074,0,0,0-1.947.55,1.836,1.836,0,0,0-.7,1.528A1.652,1.652,0,0,0,128.8,8.81a6.509,6.509,0,0,0,2.259.991,10.481,10.481,0,0,1,2.5.99,3.788,3.788,0,0,1,1.336,1.261,3.219,3.219,0,0,1,.435,1.7,2.99,2.99,0,0,1-1.213,2.492,5.171,5.171,0,0,1-3.243.936,6.015,6.015,0,0,1-2.461-.505,4.142,4.142,0,0,1-1.762-1.384,3.378,3.378,0,0,1-.62-2h1.7a2.2,2.2,0,0,0,.857,1.833,3.608,3.608,0,0,0,2.29.672,3.317,3.317,0,0,0,2.048-.545,1.77,1.77,0,0,0,.712-1.485,1.738,1.738,0,0,0-.659-1.455A7.6,7.6,0,0,0,130.577,11.3Z" transform="translate(31 101)" fill="#111"/><path d="M3,0H13a3,3,0,0,1,3,3V13a3,3,0,0,1-3,3H3a3,3,0,0,1-3-3V3A3,3,0,0,1,3,0Z" transform="translate(192 241)" fill="#68b300"/><path d="M3,0H13a3,3,0,0,1,3,3V13a3,3,0,0,1-3,3H3a3,3,0,0,1-3-3V3A3,3,0,0,1,3,0Z" transform="translate(280 241)" fill="#ffbf00"/><path d="M3,0H13a3,3,0,0,1,3,3V13a3,3,0,0,1-3,3H3a3,3,0,0,1-3-3V3A3,3,0,0,1,3,0Z" transform="translate(496 241)" fill="#c02"/><path d="M0,0H84V32H0Z" transform="translate(797 48)" fill="#ffbf00"/><path d="M0,0H32V32H0Z" transform="translate(764 96)" fill="#ffbf00"/><path d="M0,0H109V32H0Z" transform="translate(723)" fill="#ffbf00"/><path d="M0,0H9a6,6,0,0,1,6,6V26a6,6,0,0,1-6,6H0Z" transform="translate(881 48)" fill="#c02"/><path d="M0,0H62a6,6,0,0,1,6,6V26a6,6,0,0,1-6,6H0Z" transform="translate(828)" fill="#c02"/><path d="M33.876,17H31.749V6.719l-3.138,1.07V6L33.6,4.159h.272Zm10.23,0H41.979V6.719l-3.138,1.07V6l4.992-1.837h.272Zm4.887,2.883L47.842,19.2a6.21,6.21,0,0,0,.7-1.393,4.157,4.157,0,0,0,.2-1.208V14.935h1.925l-.009,1.538a4.287,4.287,0,0,1-.47,1.868A4.64,4.64,0,0,1,48.993,19.883ZM54.979,9.626h1.3a2.328,2.328,0,0,0,1.56-.51,1.819,1.819,0,0,0,.576-1.45,1.982,1.982,0,0,0-.479-1.419,1.928,1.928,0,0,0-1.463-.505,2.039,2.039,0,0,0-1.415.5,1.659,1.659,0,0,0-.554,1.3H52.368a3.233,3.233,0,0,1,.523-1.793A3.513,3.513,0,0,1,54.35,4.48a4.753,4.753,0,0,1,2.1-.453,4.4,4.4,0,0,1,3.01.962,3.377,3.377,0,0,1,1.094,2.676A2.719,2.719,0,0,1,60,9.288a3.445,3.445,0,0,1-1.419,1.147,3.14,3.14,0,0,1,1.6,1.134,3.1,3.1,0,0,1,.549,1.846,3.437,3.437,0,0,1-1.182,2.742,5.19,5.19,0,0,1-6.13.035,3.242,3.242,0,0,1-1.178-2.619h2.136a1.787,1.787,0,0,0,.567,1.371,2.15,2.15,0,0,0,1.525.527,2.217,2.217,0,0,0,1.564-.527,1.978,1.978,0,0,0,.571-1.529,2,2,0,0,0-.6-1.556,2.555,2.555,0,0,0-1.775-.545H54.979Zm7.673-2.962a2.568,2.568,0,0,1,.747-1.9,2.975,2.975,0,0,1,3.933,0,2.633,2.633,0,0,1,.743,1.947v.633a2.551,2.551,0,0,1-.743,1.89,2.653,2.653,0,0,1-1.956.738,2.737,2.737,0,0,1-1.956-.725,2.559,2.559,0,0,1-.769-1.956Zm1.494.673a1.41,1.41,0,0,0,.338.983,1.145,1.145,0,0,0,.892.374,1.121,1.121,0,0,0,.879-.374A1.474,1.474,0,0,0,66.589,7.3V6.659a1.426,1.426,0,0,0-.338-.987,1.138,1.138,0,0,0-.892-.379,1.106,1.106,0,0,0-.883.383,1.493,1.493,0,0,0-.33,1.009ZM68.8,13.862a2.516,2.516,0,0,1,.765-1.907,2.98,2.98,0,0,1,3.907,0,2.6,2.6,0,0,1,.76,1.969v.624a2.571,2.571,0,0,1-.734,1.885,2.637,2.637,0,0,1-1.964.743,2.715,2.715,0,0,1-1.982-.734A2.586,2.586,0,0,1,68.8,14.5Zm1.494.677a1.4,1.4,0,0,0,.347.98,1.151,1.151,0,0,0,.892.382,1.115,1.115,0,0,0,.883-.365,1.5,1.5,0,0,0,.321-1.024v-.659a1.389,1.389,0,0,0-.343-.984,1.236,1.236,0,0,0-1.762,0,1.452,1.452,0,0,0-.338,1.02Zm-4.482,1.5-1.1-.633,6.249-10,1.1.633Z" transform="translate(799 54)" fill="#fff"/><path d="M22.876,17H20.749V6.719l-3.138,1.07V6L22.6,4.159h.272Zm11.672-4.562h1.591v1.714H34.548V17H32.412V14.152H26.884l-.062-1.3L32.342,4.2h2.206Zm-5.484,0h3.349V7.095l-.158.281Zm8.93,7.444L36.842,19.2a6.21,6.21,0,0,0,.7-1.393,4.157,4.157,0,0,0,.2-1.208V14.935h1.925l-.009,1.538a4.287,4.287,0,0,1-.47,1.868A4.64,4.64,0,0,1,37.993,19.883ZM50.113,17h-8.6V15.532l4.263-4.649a10.615,10.615,0,0,0,1.314-1.718,2.784,2.784,0,0,0,.391-1.384A2.1,2.1,0,0,0,46.962,6.3a1.783,1.783,0,0,0-1.384-.562,2.056,2.056,0,0,0-1.608.633A2.489,2.489,0,0,0,43.4,8.105H41.263A4.186,4.186,0,0,1,41.794,6a3.662,3.662,0,0,1,1.521-1.455A4.84,4.84,0,0,1,45.6,4.027a4.329,4.329,0,0,1,2.94.936,3.249,3.249,0,0,1,1.077,2.588,4.392,4.392,0,0,1-.541,2.008A11.42,11.42,0,0,1,47.3,11.946l-3.129,3.349h5.941ZM51.651,6.664a2.568,2.568,0,0,1,.747-1.9,2.975,2.975,0,0,1,3.933,0,2.633,2.633,0,0,1,.743,1.947v.633a2.551,2.551,0,0,1-.743,1.89,2.653,2.653,0,0,1-1.956.738,2.737,2.737,0,0,1-1.956-.725,2.559,2.559,0,0,1-.769-1.956Zm1.494.673a1.41,1.41,0,0,0,.338.983,1.145,1.145,0,0,0,.892.374,1.121,1.121,0,0,0,.879-.374A1.474,1.474,0,0,0,55.589,7.3V6.659a1.426,1.426,0,0,0-.338-.987,1.138,1.138,0,0,0-.892-.379,1.106,1.106,0,0,0-.883.383,1.493,1.493,0,0,0-.33,1.009ZM57.8,13.862a2.516,2.516,0,0,1,.765-1.907,2.98,2.98,0,0,1,3.907,0,2.6,2.6,0,0,1,.76,1.969v.624a2.571,2.571,0,0,1-.734,1.885,2.637,2.637,0,0,1-1.964.743,2.715,2.715,0,0,1-1.982-.734A2.586,2.586,0,0,1,57.8,14.5Zm1.494.677a1.4,1.4,0,0,0,.347.98,1.151,1.151,0,0,0,.892.382,1.115,1.115,0,0,0,.883-.365,1.5,1.5,0,0,0,.321-1.024v-.659a1.389,1.389,0,0,0-.343-.984,1.236,1.236,0,0,0-1.762,0,1.452,1.452,0,0,0-.338,1.02Zm-4.482,1.5-1.1-.633,6.249-10,1.1.633Z" transform="translate(756 6)" fill="#fff"/><path d="M18.876,17H16.749V6.719l-3.138,1.07V6L18.6,4.159h.272Zm12.788-5.388a6.979,6.979,0,0,1-1.033,4.162,3.647,3.647,0,0,1-3.142,1.4,3.7,3.7,0,0,1-3.125-1.367,6.683,6.683,0,0,1-1.077-4.047V9.547a6.874,6.874,0,0,1,1.033-4.14,3.681,3.681,0,0,1,3.151-1.38A3.7,3.7,0,0,1,30.6,5.372,6.664,6.664,0,0,1,31.664,9.4ZM29.528,9.222a5.415,5.415,0,0,0-.492-2.641,1.881,1.881,0,0,0-3.1-.044,5,5,0,0,0-.519,2.483v2.9a5.555,5.555,0,0,0,.5,2.672,1.683,1.683,0,0,0,1.573.879,1.653,1.653,0,0,0,1.521-.813,5.226,5.226,0,0,0,.519-2.544Zm4.465,10.661L32.842,19.2a6.21,6.21,0,0,0,.7-1.393,4.157,4.157,0,0,0,.2-1.208V14.935h1.925l-.009,1.538a4.287,4.287,0,0,1-.47,1.868A4.64,4.64,0,0,1,33.993,19.883ZM44.153,4.142V5.908H43.89a4.239,4.239,0,0,0-2.865.984A4.119,4.119,0,0,0,39.75,9.608a3.468,3.468,0,0,1,2.628-1.081,3.276,3.276,0,0,1,2.676,1.2,4.708,4.708,0,0,1,.98,3.085,4.4,4.4,0,0,1-1.147,3.16,3.959,3.959,0,0,1-3.01,1.208,3.867,3.867,0,0,1-3.107-1.415,5.566,5.566,0,0,1-1.191-3.709v-.729a7.832,7.832,0,0,1,1.639-5.273,5.877,5.877,0,0,1,4.715-1.907ZM41.859,10.25a2.249,2.249,0,0,0-1.288.4,2.312,2.312,0,0,0-.857,1.055v.65a3.831,3.831,0,0,0,.6,2.263,1.823,1.823,0,0,0,1.547.839,1.8,1.8,0,0,0,1.5-.712,2.965,2.965,0,0,0,.554-1.872,3.007,3.007,0,0,0-.562-1.89A1.793,1.793,0,0,0,41.859,10.25Zm5.792-3.586a2.568,2.568,0,0,1,.747-1.9,2.975,2.975,0,0,1,3.933,0,2.633,2.633,0,0,1,.743,1.947v.633a2.551,2.551,0,0,1-.743,1.89,2.653,2.653,0,0,1-1.956.738,2.737,2.737,0,0,1-1.956-.725,2.559,2.559,0,0,1-.769-1.956Zm1.494.673a1.41,1.41,0,0,0,.338.983,1.145,1.145,0,0,0,.892.374,1.121,1.121,0,0,0,.879-.374A1.474,1.474,0,0,0,51.589,7.3V6.659a1.426,1.426,0,0,0-.338-.987,1.138,1.138,0,0,0-.892-.379,1.106,1.106,0,0,0-.883.383,1.493,1.493,0,0,0-.33,1.009ZM53.8,13.862a2.516,2.516,0,0,1,.765-1.907,2.98,2.98,0,0,1,3.907,0,2.6,2.6,0,0,1,.76,1.969v.624a2.571,2.571,0,0,1-.734,1.885,2.637,2.637,0,0,1-1.964.743,2.715,2.715,0,0,1-1.982-.734A2.586,2.586,0,0,1,53.8,14.5Zm1.494.677a1.4,1.4,0,0,0,.347.98,1.151,1.151,0,0,0,.892.382,1.115,1.115,0,0,0,.883-.365,1.5,1.5,0,0,0,.321-1.024v-.659a1.389,1.389,0,0,0-.343-.984,1.236,1.236,0,0,0-1.762,0,1.452,1.452,0,0,0-.338,1.02Zm-4.482,1.5-1.1-.633,6.249-10,1.1.633Z" transform="translate(828 6)" fill="#fff"/><path d="M12.876,17H10.749V6.719L7.611,7.789V6L12.6,4.159h.272Zm4.887,2.883L16.611,19.2a6.21,6.21,0,0,0,.7-1.393,4.157,4.157,0,0,0,.2-1.208V14.935h1.925l-.009,1.538a4.287,4.287,0,0,1-.47,1.868A4.64,4.64,0,0,1,17.763,19.883Zm9.571-8.235A3.491,3.491,0,0,1,22.14,11.6a4.642,4.642,0,0,1-1-3.107,5.094,5.094,0,0,1,.51-2.294A3.8,3.8,0,0,1,23.1,4.6a4.115,4.115,0,0,1,2.18-.571,3.7,3.7,0,0,1,3.067,1.441,6.071,6.071,0,0,1,1.134,3.858v.6a7.885,7.885,0,0,1-1.564,5.282,5.889,5.889,0,0,1-4.667,1.846h-.255V15.286H23.3a4.373,4.373,0,0,0,2.9-.91A3.792,3.792,0,0,0,27.334,11.647Zm-2.057-.536a2.155,2.155,0,0,0,1.2-.369,2.432,2.432,0,0,0,.87-1.02V8.888a4.009,4.009,0,0,0-.58-2.276,1.748,1.748,0,0,0-1.5-.861,1.727,1.727,0,0,0-1.472.76,3.2,3.2,0,0,0-.549,1.92,3.156,3.156,0,0,0,.554,1.942A1.754,1.754,0,0,0,25.277,11.111ZM39.568,7.578a2.975,2.975,0,0,1-.483,1.674,3.353,3.353,0,0,1-1.318,1.156,3.652,3.652,0,0,1,1.542,1.274,3.215,3.215,0,0,1,.541,1.828,3.357,3.357,0,0,1-1.143,2.676,4.485,4.485,0,0,1-3.041.989,4.5,4.5,0,0,1-3.054-.993,3.355,3.355,0,0,1-1.147-2.672,3.252,3.252,0,0,1,.545-1.846,3.5,3.5,0,0,1,1.529-1.257,3.334,3.334,0,0,1-1.305-1.156,3,3,0,0,1-.479-1.674A3.329,3.329,0,0,1,32.81,4.985a4.074,4.074,0,0,1,2.848-.958,4.088,4.088,0,0,1,2.856.958A3.329,3.329,0,0,1,39.568,7.578Zm-1.854,5.827a2.11,2.11,0,0,0-.567-1.534,1.993,1.993,0,0,0-1.5-.584,1.971,1.971,0,0,0-1.49.58,2.125,2.125,0,0,0-.558,1.538,2.059,2.059,0,0,0,.549,1.5,2.341,2.341,0,0,0,3.023.018A2.065,2.065,0,0,0,37.714,13.405Zm-.272-5.748a1.986,1.986,0,0,0-.483-1.375,1.857,1.857,0,0,0-2.593-.026,1.987,1.987,0,0,0-.475,1.4,1.979,1.979,0,0,0,.479,1.4,1.88,1.88,0,0,0,2.593,0A1.979,1.979,0,0,0,37.441,7.657Zm4.21-.993a2.568,2.568,0,0,1,.747-1.9,2.975,2.975,0,0,1,3.933,0,2.633,2.633,0,0,1,.743,1.947v.633a2.551,2.551,0,0,1-.743,1.89,2.653,2.653,0,0,1-1.956.738,2.737,2.737,0,0,1-1.956-.725,2.559,2.559,0,0,1-.769-1.956Zm1.494.673a1.41,1.41,0,0,0,.338.983,1.145,1.145,0,0,0,.892.374,1.121,1.121,0,0,0,.879-.374A1.474,1.474,0,0,0,45.589,7.3V6.659a1.426,1.426,0,0,0-.338-.987,1.138,1.138,0,0,0-.892-.379,1.106,1.106,0,0,0-.883.383,1.493,1.493,0,0,0-.33,1.009ZM47.8,13.862a2.516,2.516,0,0,1,.765-1.907,2.98,2.98,0,0,1,3.907,0,2.6,2.6,0,0,1,.76,1.969v.624a2.571,2.571,0,0,1-.734,1.885,2.637,2.637,0,0,1-1.964.743,2.715,2.715,0,0,1-1.982-.734A2.586,2.586,0,0,1,47.8,14.5Zm1.494.677a1.4,1.4,0,0,0,.347.98,1.151,1.151,0,0,0,.892.382,1.115,1.115,0,0,0,.883-.365,1.5,1.5,0,0,0,.321-1.024v-.659a1.389,1.389,0,0,0-.343-.984,1.236,1.236,0,0,0-1.762,0,1.452,1.452,0,0,0-.338,1.02Zm-4.482,1.5-1.1-.633,6.249-10,1.1.633Z" transform="translate(896 54)" fill="#c02"/><path d="M0,0H94a6,6,0,0,1,6,6V26a6,6,0,0,1-6,6H0Z" transform="translate(796 96)" fill="#c02"/><path d="M34.876,17H32.749V6.719l-3.138,1.07V6L34.6,4.159h.272Zm6.917-7.374h1.3a2.328,2.328,0,0,0,1.56-.51,1.819,1.819,0,0,0,.576-1.45,1.982,1.982,0,0,0-.479-1.419,1.928,1.928,0,0,0-1.463-.505,2.039,2.039,0,0,0-1.415.5,1.659,1.659,0,0,0-.554,1.3H39.183a3.233,3.233,0,0,1,.523-1.793A3.513,3.513,0,0,1,41.165,4.48a4.753,4.753,0,0,1,2.1-.453,4.4,4.4,0,0,1,3.01.962,3.377,3.377,0,0,1,1.094,2.676,2.719,2.719,0,0,1-.549,1.622A3.445,3.445,0,0,1,45.4,10.435,3.14,3.14,0,0,1,47,11.568a3.1,3.1,0,0,1,.549,1.846,3.437,3.437,0,0,1-1.182,2.742,5.19,5.19,0,0,1-6.13.035,3.242,3.242,0,0,1-1.178-2.619H41.2a1.787,1.787,0,0,0,.567,1.371,2.15,2.15,0,0,0,1.525.527,2.217,2.217,0,0,0,1.564-.527,1.978,1.978,0,0,0,.571-1.529,2,2,0,0,0-.6-1.556,2.555,2.555,0,0,0-1.775-.545H41.793Zm8.2,10.257L48.842,19.2a6.21,6.21,0,0,0,.7-1.393,4.157,4.157,0,0,0,.2-1.208V14.935h1.925l-.009,1.538a4.287,4.287,0,0,1-.47,1.868A4.64,4.64,0,0,1,49.993,19.883ZM62.113,17h-8.6V15.532l4.263-4.649a10.615,10.615,0,0,0,1.314-1.718,2.784,2.784,0,0,0,.391-1.384A2.1,2.1,0,0,0,58.962,6.3a1.783,1.783,0,0,0-1.384-.562,2.056,2.056,0,0,0-1.608.633A2.489,2.489,0,0,0,55.4,8.105H53.263A4.186,4.186,0,0,1,53.794,6a3.662,3.662,0,0,1,1.521-1.455A4.84,4.84,0,0,1,57.6,4.027a4.329,4.329,0,0,1,2.94.936,3.249,3.249,0,0,1,1.077,2.588,4.392,4.392,0,0,1-.541,2.008A11.42,11.42,0,0,1,59.3,11.946l-3.129,3.349h5.941ZM63.651,6.664a2.568,2.568,0,0,1,.747-1.9,2.975,2.975,0,0,1,3.933,0,2.633,2.633,0,0,1,.743,1.947v.633a2.551,2.551,0,0,1-.743,1.89,2.653,2.653,0,0,1-1.956.738,2.737,2.737,0,0,1-1.956-.725,2.559,2.559,0,0,1-.769-1.956Zm1.494.673a1.41,1.41,0,0,0,.338.983,1.145,1.145,0,0,0,.892.374,1.121,1.121,0,0,0,.879-.374A1.474,1.474,0,0,0,67.589,7.3V6.659a1.426,1.426,0,0,0-.338-.987,1.138,1.138,0,0,0-.892-.379,1.106,1.106,0,0,0-.883.383,1.493,1.493,0,0,0-.33,1.009ZM69.8,13.862a2.516,2.516,0,0,1,.765-1.907,2.98,2.98,0,0,1,3.907,0,2.6,2.6,0,0,1,.76,1.969v.624a2.571,2.571,0,0,1-.734,1.885,2.637,2.637,0,0,1-1.964.743,2.715,2.715,0,0,1-1.982-.734A2.586,2.586,0,0,1,69.8,14.5Zm1.494.677a1.4,1.4,0,0,0,.347.98,1.151,1.151,0,0,0,.892.382,1.115,1.115,0,0,0,.883-.365,1.5,1.5,0,0,0,.321-1.024v-.659a1.389,1.389,0,0,0-.343-.984,1.236,1.236,0,0,0-1.762,0,1.452,1.452,0,0,0-.338,1.02Zm-4.482,1.5-1.1-.633,6.249-10,1.1.633Z" transform="translate(812 102)" fill="#fff"/><path d="M5.793,9.626h1.3a2.328,2.328,0,0,0,1.56-.51,1.819,1.819,0,0,0,.576-1.45A1.982,1.982,0,0,0,8.75,6.247a1.928,1.928,0,0,0-1.463-.505,2.039,2.039,0,0,0-1.415.5,1.659,1.659,0,0,0-.554,1.3H3.183a3.233,3.233,0,0,1,.523-1.793A3.513,3.513,0,0,1,5.165,4.48a4.753,4.753,0,0,1,2.1-.453,4.4,4.4,0,0,1,3.01.962,3.377,3.377,0,0,1,1.094,2.676,2.719,2.719,0,0,1-.549,1.622A3.445,3.445,0,0,1,9.4,10.435,3.14,3.14,0,0,1,11,11.568a3.1,3.1,0,0,1,.549,1.846,3.437,3.437,0,0,1-1.182,2.742,4.59,4.59,0,0,1-3.107,1.02,4.555,4.555,0,0,1-3.023-.984A3.242,3.242,0,0,1,3.06,13.572H5.2a1.787,1.787,0,0,0,.567,1.371,2.15,2.15,0,0,0,1.525.527,2.217,2.217,0,0,0,1.564-.527,1.978,1.978,0,0,0,.571-1.529,2,2,0,0,0-.6-1.556,2.555,2.555,0,0,0-1.775-.545H5.793Zm8.2,10.257L12.842,19.2a6.21,6.21,0,0,0,.7-1.393,4.157,4.157,0,0,0,.2-1.208V14.935h1.925l-.009,1.538a4.287,4.287,0,0,1-.47,1.868A4.64,4.64,0,0,1,13.993,19.883ZM26.025,5.39,20.91,17H18.669L23.775,5.917H17.157V4.2h8.868Zm1.626,1.274a2.568,2.568,0,0,1,.747-1.9,2.975,2.975,0,0,1,3.933,0,2.633,2.633,0,0,1,.743,1.947v.633a2.551,2.551,0,0,1-.743,1.89,2.653,2.653,0,0,1-1.956.738,2.737,2.737,0,0,1-1.956-.725,2.559,2.559,0,0,1-.769-1.956Zm1.494.673a1.41,1.41,0,0,0,.338.983,1.145,1.145,0,0,0,.892.374,1.121,1.121,0,0,0,.879-.374A1.474,1.474,0,0,0,31.589,7.3V6.659a1.426,1.426,0,0,0-.338-.987,1.138,1.138,0,0,0-.892-.379,1.106,1.106,0,0,0-.883.383,1.493,1.493,0,0,0-.33,1.009ZM33.8,13.862a2.516,2.516,0,0,1,.765-1.907,2.98,2.98,0,0,1,3.907,0,2.6,2.6,0,0,1,.76,1.969v.624a2.571,2.571,0,0,1-.734,1.885,2.637,2.637,0,0,1-1.964.743,2.715,2.715,0,0,1-1.982-.734A2.586,2.586,0,0,1,33.8,14.5Zm1.494.677a1.4,1.4,0,0,0,.347.98,1.151,1.151,0,0,0,.892.382,1.115,1.115,0,0,0,.883-.365,1.5,1.5,0,0,0,.321-1.024v-.659a1.389,1.389,0,0,0-.343-.984,1.236,1.236,0,0,0-1.762,0,1.452,1.452,0,0,0-.338,1.02Zm-4.482,1.5-1.1-.633,6.249-10,1.1.633Z" transform="translate(765 102)" fill="#fff"/></g><path d="M82.078,39.513c0,2.494-2.4,4.806-6.983,4.806A13.37,13.37,0,0,1,69.2,42.96l1.088-1.9a10.189,10.189,0,0,0,4.9,1.224c2.176,0,3.537-.907,3.537-2.358,0-1.088-.816-1.814-2.675-2.176l-1.9-.453A5.712,5.712,0,0,1,70.7,35.478a3.242,3.242,0,0,1-.725-2.176c0-2.63,2.494-4.444,6.076-4.444a11.23,11.23,0,0,1,5.668,1.451l-1.36,1.768a8.722,8.722,0,0,0-4.217-1.088c-1.768,0-2.9.816-2.9,2.04,0,.952.635,1.406,2.358,1.859l2.131.5C80.264,35.886,82.078,37.246,82.078,39.513Zm19.135-4.262-2.131-.5c-1.768-.453-2.358-.907-2.358-1.859,0-1.224,1.179-2.04,2.9-2.04a8.6,8.6,0,0,1,4.217,1.088l1.36-1.768a11.152,11.152,0,0,0-5.668-1.36c-3.582,0-6.076,1.814-6.076,4.444a3.094,3.094,0,0,0,.725,2.176,5.7,5.7,0,0,0,3.491,1.814l1.9.453c1.859.408,2.675,1.088,2.675,2.176,0,1.5-1.315,2.358-3.537,2.358a10.689,10.689,0,0,1-4.852-1.224l-1.088,1.9a13.228,13.228,0,0,0,5.895,1.36c4.58,0,6.983-2.313,6.983-4.806C105.611,37.246,103.8,35.886,101.213,35.251ZM86.022,44h3.038V29.039H86.022Zm21.13-12.923h4.534V44h2.993V31.125h4.489l.408-2.086H107.2v2.04ZM151,35.8l4.534-6.8H152l-2.811,4.67-2.857-4.625H142.7l4.806,6.938-5.487,8.071h3.673l3.582-5.94,3.718,5.94h3.537ZM130.958,40.42,133.588,44h-3.537l-1.542-2.313a17.047,17.047,0,0,0-3.038-3.718,1.606,1.606,0,0,0-1.179-.453v6.529h-2.947V29.039h5.487c3.99,0,5.849,1.95,5.849,4.308a4.141,4.141,0,0,1-4.126,4.126h-.317A12.041,12.041,0,0,1,130.958,40.42Zm-2.176-5.26a2.348,2.348,0,0,0,.816-1.814c0-1.542-1-2.313-3.627-2.313h-1.678V35.8h1.542a4.616,4.616,0,0,0,2.947-.635Zm8.026,8.887h3.038V29.039h-3.083Zm54.322,11.109-8.842-8.842a12.506,12.506,0,1,1,2.176-2.222l8.887,8.887Zm-16.505-8.706a9.93,9.93,0,1,0-9.93-9.93,9.927,9.927,0,0,0,9.93,9.93Z" transform="translate(759.8 298.823)" fill="#ddd"/><path d="M6,0H975a6,6,0,0,1,6,6V56H0V6A6,6,0,0,1,6,0Z" fill="url(#a)"/><path d="M15.7,10.84H8.56v2.72h3.76a3.536,3.536,0,0,1-3.78,2.92c-2.66,0-4.42-1.64-4.42-4.96S5.86,6.56,8.54,6.56A3.641,3.641,0,0,1,12.36,9.5l3.2-.54c-.8-3.28-3.54-5.14-7-5.14C4.2,3.82.98,6.68.98,11.52c0,4.82,3.24,7.7,7.6,7.7,4.38,0,7.12-2.96,7.12-7.38Zm6.9-2.38a5.2,5.2,0,0,0-5.5,5.38,5.208,5.208,0,0,0,5.5,5.38,5.208,5.208,0,0,0,5.5-5.38A5.2,5.2,0,0,0,22.6,8.46Zm0,2.5c1.5,0,2.54,1.06,2.54,2.88,0,1.8-1.04,2.86-2.54,2.86s-2.54-1.06-2.54-2.86C20.06,12.02,21.1,10.96,22.6,10.96Zm12.3-2.5a5.2,5.2,0,0,0-5.5,5.38,5.208,5.208,0,0,0,5.5,5.38,5.208,5.208,0,0,0,5.5-5.38A5.2,5.2,0,0,0,34.9,8.46Zm0,2.5c1.5,0,2.54,1.06,2.54,2.88,0,1.8-1.04,2.86-2.54,2.86s-2.54-1.06-2.54-2.86C32.36,12.02,33.4,10.96,34.9,10.96Zm11.78-2.5c-2.92,0-4.98,2.14-4.98,5.38s2.06,5.38,4.98,5.38a3.981,3.981,0,0,0,2.92-1.1V19.6a2.128,2.128,0,0,1-2.42,2.22c-1.32,0-2.18-.6-2.32-1.6l-2.9.1c.38,2.36,2.08,3.98,5.32,3.98,3.18,0,5.22-1.94,5.22-4.92V8.66H49.76V9.74A3.779,3.779,0,0,0,46.68,8.46Zm.48,2.5A2.378,2.378,0,0,1,49.6,13.6v.48a2.378,2.378,0,0,1-2.44,2.64c-1.46,0-2.5-1.04-2.5-2.88S45.7,10.96,47.16,10.96ZM57.68,19V3.46H54.76V19Zm12.08-4.24V13.6c0-3.22-1.96-5.14-4.94-5.14a5.008,5.008,0,0,0-5.26,5.38,5.039,5.039,0,0,0,5.34,5.38c2.42,0,4.4-1.4,4.76-3.36l-2.94-.14a1.769,1.769,0,0,1-1.9,1.14,2.021,2.021,0,0,1-2.16-2.1ZM64.8,10.74a1.907,1.907,0,0,1,2.02,2.08H62.66A2.02,2.02,0,0,1,64.8,10.74ZM91.28,19,96.5,4.04H93.14l-3.18,9.72-3.2-9.72H84.22l-3.18,9.72-3.2-9.72H74.48L79.7,19h2.62L85.5,9.52,88.68,19Zm14.36-4.24V13.6c0-3.22-1.96-5.14-4.94-5.14a5.008,5.008,0,0,0-5.26,5.38,5.039,5.039,0,0,0,5.34,5.38c2.42,0,4.4-1.4,4.76-3.36l-2.94-.14a1.769,1.769,0,0,1-1.9,1.14,2.021,2.021,0,0,1-2.16-2.1Zm-4.96-4.02a1.907,1.907,0,0,1,2.02,2.08H98.54A2.02,2.02,0,0,1,100.68,10.74Zm9.74-7.28H107.5V19h2.76V17.94a3.826,3.826,0,0,0,3.06,1.28c2.94,0,5-2.14,5-5.38,0-3.26-2.06-5.38-5-5.38a3.853,3.853,0,0,0-2.9,1.1Zm2.44,7.5c1.46,0,2.5,1.04,2.5,2.88s-1.04,2.86-2.5,2.86a2.368,2.368,0,0,1-2.44-2.64V13.6A2.378,2.378,0,0,1,112.86,10.96ZM131.94,19l6.3-14.96h-3.4l-4.2,10.16L126.42,4.04h-3.38L129.34,19ZM140.7,3.52a1.758,1.758,0,0,0-1.74,1.76,1.75,1.75,0,0,0,3.5,0A1.75,1.75,0,0,0,140.7,3.52ZM142.16,19V8.66h-2.92V19Zm6.02-7.82h2.44V8.66H148.2l.02-3.42H145.3l-.02,3.42h-1.9v2.52h1.88l-.02,4.54c-.02,2.4,1.52,3.48,3.76,3.48a9.725,9.725,0,0,0,1.62-.12v-2.6a4.318,4.318,0,0,1-.9.1,1.426,1.426,0,0,1-1.56-1.56Zm8.08-2.72a4.018,4.018,0,0,0-4.32,3.7l2.92.12a1.322,1.322,0,0,1,1.44-1.36c.9,0,1.34.56,1.34,1.6v.4l-1.84.1c-2.2.1-4.14.84-4.14,3.14,0,2,1.36,3.06,3.44,3.06a3.579,3.579,0,0,0,2.64-1.06V19h2.82V12.62C160.56,9.9,159.04,8.46,156.26,8.46Zm1.38,6.38v.44a1.658,1.658,0,0,1-1.86,1.68c-.7,0-1.2-.26-1.2-.94,0-.74.62-1.04,1.5-1.08ZM165.82,19V3.46H162.9V19ZM171.8,8.46c-2.6,0-4.14,1.28-4.14,3.26,0,2.12,1.46,2.58,3.66,3.14,1.5.36,1.88.56,1.88,1.18,0,.6-.5.94-1.3.94-1,0-1.46-.52-1.5-1.28l-2.92.16c.22,2.16,1.76,3.36,4.4,3.36,2.7,0,4.24-1.34,4.24-3.44,0-1.88-1.46-2.52-3.52-3.06-1.24-.32-2.02-.42-2.02-1.14,0-.56.4-.88,1.18-.88a1.193,1.193,0,0,1,1.32,1.26l2.9-.16C175.8,9.88,174.42,8.46,171.8,8.46Zm7.04,0a1.76,1.76,0,1,0,1.78,1.78A1.754,1.754,0,0,0,178.84,8.46Zm0,7.22a1.77,1.77,0,1,0,1.78,1.78A1.754,1.754,0,0,0,178.84,15.68ZM200.76,19,194.32,4.04h-2.6L185.3,19h3.38l1.24-2.88h6.22L197.36,19Zm-9.74-5.4,2.02-4.78,2.02,4.78Zm13.8-1.26V3.46H201.9V19h2.92V16.26l.92-1,2.7,3.74h3.54l-4.18-5.92,3.9-4.42h-3.54Zm11.84-1.16h2.44V8.66h-2.42l.02-3.42h-2.92l-.02,3.42h-1.9v2.52h1.88l-.02,4.54c-.02,2.4,1.52,3.48,3.76,3.48a9.725,9.725,0,0,0,1.62-.12v-2.6a4.318,4.318,0,0,1-.9.1,1.426,1.426,0,0,1-1.56-1.56ZM229.86,19V8.66h-2.92V14.5a1.772,1.772,0,0,1-1.76,2c-1.14,0-1.66-.7-1.66-1.96V8.66H220.6v6.5c0,2.52,1.44,4.06,3.82,4.06a2.956,2.956,0,0,0,2.68-1.26V19Zm12.06-4.24V13.6c0-3.22-1.96-5.14-4.94-5.14a5.008,5.008,0,0,0-5.26,5.38,5.039,5.039,0,0,0,5.34,5.38c2.42,0,4.4-1.4,4.76-3.36l-2.94-.14a1.769,1.769,0,0,1-1.9,1.14,2.021,2.021,0,0,1-2.16-2.1Zm-4.96-4.02a1.907,1.907,0,0,1,2.02,2.08h-4.16A2.02,2.02,0,0,1,236.96,10.74ZM246.7,19V3.46h-2.92V19Zm5.36,0V3.46h-2.92V19Zm12.08-4.24V13.6c0-3.22-1.96-5.14-4.94-5.14a5.008,5.008,0,0,0-5.26,5.38,5.039,5.039,0,0,0,5.34,5.38c2.42,0,4.4-1.4,4.76-3.36l-2.94-.14a1.769,1.769,0,0,1-1.9,1.14,2.021,2.021,0,0,1-2.16-2.1Zm-4.96-4.02a1.907,1.907,0,0,1,2.02,2.08h-4.16A2.02,2.02,0,0,1,259.18,10.74Zm21.08-4.36V4.04h-10.8V6.76h6.82l-6.92,9.9V19h11.1V16.26H273.3Zm3.32-2.86a1.758,1.758,0,0,0-1.74,1.76,1.75,1.75,0,0,0,3.5,0A1.75,1.75,0,0,0,283.58,3.52ZM285.04,19V8.66h-2.92V19Zm12.08-4.24V13.6c0-3.22-1.96-5.14-4.94-5.14a5.008,5.008,0,0,0-5.26,5.38,5.039,5.039,0,0,0,5.34,5.38c2.42,0,4.4-1.4,4.76-3.36l-2.94-.14a1.769,1.769,0,0,1-1.9,1.14,2.021,2.021,0,0,1-2.16-2.1Zm-4.96-4.02a1.907,1.907,0,0,1,2.02,2.08h-4.16A2.02,2.02,0,0,1,292.16,10.74ZM301.9,19V3.46h-2.92V19Zm12.08-4.24V13.6c0-3.22-1.96-5.14-4.94-5.14a5.008,5.008,0,0,0-5.26,5.38,5.039,5.039,0,0,0,5.34,5.38c2.42,0,4.4-1.4,4.76-3.36l-2.94-.14a1.769,1.769,0,0,1-1.9,1.14,2.021,2.021,0,0,1-2.16-2.1Zm-4.96-4.02a1.907,1.907,0,0,1,2.02,2.08h-4.16A2.02,2.02,0,0,1,309.02,10.74ZM321.5,8.56a3.09,3.09,0,0,0-2.84,1.28V8.66h-2.82V19h2.92V13.76c0-1.42,1.06-2.38,2.74-2.38Zm7.1,0a3.09,3.09,0,0,0-2.84,1.28V8.66h-2.82V19h2.92V13.76c0-1.42,1.06-2.38,2.74-2.38Zm11.04,6.2V13.6c0-3.22-1.96-5.14-4.94-5.14a5.008,5.008,0,0,0-5.26,5.38,5.039,5.039,0,0,0,5.34,5.38c2.42,0,4.4-1.4,4.76-3.36l-2.94-.14a1.769,1.769,0,0,1-1.9,1.14,2.021,2.021,0,0,1-2.16-2.1Zm-4.96-4.02a1.907,1.907,0,0,1,2.02,2.08h-4.16A2.02,2.02,0,0,1,334.68,10.74Zm8.28-7.22a1.758,1.758,0,0,0-1.74,1.76,1.75,1.75,0,0,0,3.5,0A1.75,1.75,0,0,0,342.96,3.52ZM344.42,19V8.66H341.5V19ZM351.6,8.46a5.018,5.018,0,0,0-5.3,5.38,5.038,5.038,0,0,0,5.3,5.38,4.671,4.671,0,0,0,4.9-3.94l-2.84-.26a1.919,1.919,0,0,1-2.06,1.68c-1.36,0-2.34-1.04-2.34-2.86,0-1.84.98-2.88,2.34-2.88a1.932,1.932,0,0,1,2.04,1.74l2.86-.24A4.67,4.67,0,0,0,351.6,8.46Zm9.56-5h-2.92V19h2.92V13.26a1.894,1.894,0,0,1,1.92-2.08c1.12,0,1.82.74,1.82,2.06V19h2.92V12.68a3.851,3.851,0,0,0-4.04-4.22,3.2,3.2,0,0,0-2.62,1.08ZM379.26,19V8.66h-2.92V14.5a1.772,1.772,0,0,1-1.76,2c-1.14,0-1.66-.7-1.66-1.96V8.66H370v6.5c0,2.52,1.44,4.06,3.82,4.06a2.956,2.956,0,0,0,2.68-1.26V19Zm7.96-10.54a3.122,3.122,0,0,0-2.78,1.26V8.66h-2.76V19h2.92V13.26a1.894,1.894,0,0,1,1.92-2.08c1.12,0,1.82.74,1.82,2.06V19h2.92V12.68A3.851,3.851,0,0,0,387.22,8.46Zm10.78,0c-2.92,0-4.98,2.14-4.98,5.38s2.06,5.38,4.98,5.38a3.981,3.981,0,0,0,2.92-1.1V19.6a2.128,2.128,0,0,1-2.42,2.22c-1.32,0-2.18-.6-2.32-1.6l-2.9.1c.38,2.36,2.08,3.98,5.32,3.98,3.18,0,5.22-1.94,5.22-4.92V8.66h-2.74V9.74A3.779,3.779,0,0,0,398,8.46Zm.48,2.5a2.378,2.378,0,0,1,2.44,2.64v.48a2.378,2.378,0,0,1-2.44,2.64c-1.46,0-2.5-1.04-2.5-2.88S397.02,10.96,398.48,10.96ZM411.82,4.3a14.955,14.955,0,0,0-2.38,8.3,14.955,14.955,0,0,0,2.38,8.3l2.52-.88a14.764,14.764,0,0,1,0-14.84Zm3.88-.26V19h6.14a7.042,7.042,0,0,0,7.44-7.48c0-4.7-3.16-7.48-7.42-7.48Zm3.08,2.64h3.1c2.62,0,4.34,1.62,4.34,4.84s-1.74,4.84-4.34,4.84h-3.1Zm22.12.08V4.04h-9.6V19h9.62V16.26H434.4v-3.6h5.64V10H434.4V6.76Zm.82-1.58a14.893,14.893,0,0,1,0,14.84l2.52.88a15.119,15.119,0,0,0,2.38-8.3,15.119,15.119,0,0,0-2.38-8.3Z" transform="translate(56 16)" fill="#00285a"/><path d="M23.674,20.75,19,16.077a1.124,1.124,0,0,0-.8-.328h-.764a9.747,9.747,0,1,0-1.688,1.687V18.2a1.124,1.124,0,0,0,.328.8l4.674,4.673a1.121,1.121,0,0,0,1.589,0l1.327-1.326A1.13,1.13,0,0,0,23.674,20.75Zm-13.923-5a6,6,0,1,1,6-6A6,6,0,0,1,9.751,15.748Z" transform="translate(17 17)" fill="#1269d3"/></svg>